<svg xmlns="http://www.w3.org/2000/svg" width="123" height="123" viewBox="0 0 123 123" fill="none">
  <path d="M 57.613 16.009 C 58.602 11.934 64.398 11.934 65.387 16.009 L 69.622 33.451 C 70.261 36.084 73.277 37.333 75.59 35.923 L 90.918 26.585 C 94.499 24.403 98.597 28.501 96.415 32.082 L 87.077 47.41 C 85.667 49.723 86.916 52.739 89.549 53.378 L 106.991 57.613 C 111.066 58.602 111.066 64.398 106.991 65.387 L 89.549 69.622 C 86.916 70.261 85.667 73.277 87.077 75.59 L 96.415 90.918 C 98.597 94.499 94.499 98.597 90.918 96.415 L 75.59 87.077 C 73.277 85.667 70.261 86.916 69.622 89.549 L 65.387 106.991 C 64.398 111.066 58.602 111.066 57.613 106.991 L 53.378 89.549 C 52.739 86.916 49.723 85.667 47.41 87.077 L 32.082 96.415 C 28.501 98.597 24.403 94.499 26.585 90.918 L 35.923 75.59 C 37.333 73.277 36.084 70.261 33.451 69.622 L 16.009 65.387 C 11.934 64.398 11.934 58.602 16.009 57.613 L 33.451 53.378 C 36.084 52.739 37.333 49.723 35.923 47.41 L 26.585 32.082 C 24.403 28.501 28.501 24.403 32.082 26.585 L 47.41 35.923 C 49.723 37.333 52.739 36.084 53.378 33.451 L 57.613 16.009 Z" fill="currentColor" fill-rule="nonzero"/>
</svg>
