<svg xmlns="http://www.w3.org/2000/svg" width="906.167" height="604.167" viewBox="0 0 906.167 604.167" fill="none">
  <path d="M 906.167 0 L 906.417 0 L 906.417 -0.25 L 906.167 -0.25 L 906.167 0 Z M 906.167 604.167 L 906.167 604.417 L 906.417 604.417 L 906.417 604.167 L 906.167 604.167 Z M 0 0 L 0 -0.25 L -0.25 -0.25 L -0.25 0 L 0 0 Z M 0 604.167 L -0.25 604.167 L -0.25 604.417 L 0 604.417 L 0 604.167 Z M 1 603.167 L 0.75 603.167 L 0.75 603.417 L 1 603.417 L 1 603.167 Z M 100.218 603.167 L 100.218 603.417 L 100.468 603.417 L 100.468 603.167 L 100.218 603.167 Z M 1 503.903 L 1 503.653 L 0.75 503.653 L 0.75 503.903 L 1 503.903 Z M 100.218 503.903 L 100.468 503.903 L 100.468 503.653 L 100.218 503.653 L 100.218 503.903 Z M 100.218 503.486 L 100.218 503.736 L 100.468 503.736 L 100.468 503.486 L 100.218 503.486 Z M 1 503.486 L 0.75 503.486 L 0.75 503.736 L 1 503.736 L 1 503.486 Z M 1 403.097 L 1 402.847 L 0.75 402.847 L 0.75 403.097 L 1 403.097 Z M 100.218 403.097 L 100.468 403.097 L 100.468 402.847 L 100.218 402.847 L 100.218 403.097 Z M 100.635 503.903 L 100.635 503.653 L 100.385 503.653 L 100.385 503.903 L 100.635 503.903 Z M 100.635 603.167 L 100.385 603.167 L 100.385 603.417 L 100.635 603.417 L 100.635 603.167 Z M 200.977 603.167 L 200.977 603.417 L 201.227 603.417 L 201.227 603.167 L 200.977 603.167 Z M 200.977 503.903 L 201.227 503.903 L 201.227 503.653 L 200.977 503.653 L 200.977 503.903 Z M 200.977 503.486 L 200.977 503.736 L 201.227 503.736 L 201.227 503.486 L 200.977 503.486 Z M 100.635 503.486 L 100.385 503.486 L 100.385 503.736 L 100.635 503.736 L 100.635 503.486 Z M 100.635 403.097 L 100.635 402.847 L 100.385 402.847 L 100.385 403.097 L 100.635 403.097 Z M 200.977 403.097 L 201.227 403.097 L 201.227 402.847 L 200.977 402.847 L 200.977 403.097 Z M 201.394 503.903 L 201.394 503.653 L 201.144 503.653 L 201.144 503.903 L 201.394 503.903 Z M 201.394 603.167 L 201.144 603.167 L 201.144 603.417 L 201.394 603.417 L 201.394 603.167 Z M 301.737 603.167 L 301.737 603.417 L 301.987 603.417 L 301.987 603.167 L 301.737 603.167 Z M 301.737 503.903 L 301.987 503.903 L 301.987 503.653 L 301.737 503.653 L 301.737 503.903 Z M 301.737 503.486 L 301.737 503.736 L 301.987 503.736 L 301.987 503.486 L 301.737 503.486 Z M 201.394 503.486 L 201.144 503.486 L 201.144 503.736 L 201.394 503.736 L 201.394 503.486 Z M 201.394 403.097 L 201.394 402.847 L 201.144 402.847 L 201.144 403.097 L 201.394 403.097 Z M 301.737 403.097 L 301.987 403.097 L 301.987 402.847 L 301.737 402.847 L 301.737 403.097 Z M 302.153 503.903 L 302.153 503.653 L 301.903 503.653 L 301.903 503.903 L 302.153 503.903 Z M 302.153 603.167 L 301.903 603.167 L 301.903 603.417 L 302.153 603.417 L 302.153 603.167 Z M 402.496 603.167 L 402.496 603.417 L 402.746 603.417 L 402.746 603.167 L 402.496 603.167 Z M 402.496 503.903 L 402.746 503.903 L 402.746 503.653 L 402.496 503.653 L 402.496 503.903 Z M 402.496 503.486 L 402.496 503.736 L 402.746 503.736 L 402.746 503.486 L 402.496 503.486 Z M 302.153 503.486 L 301.903 503.486 L 301.903 503.736 L 302.153 503.736 L 302.153 503.486 Z M 302.153 403.097 L 302.153 402.847 L 301.903 402.847 L 301.903 403.097 L 302.153 403.097 Z M 402.496 403.097 L 402.746 403.097 L 402.746 402.847 L 402.496 402.847 L 402.496 403.097 Z M 402.912 503.903 L 402.912 503.653 L 402.662 503.653 L 402.662 503.903 L 402.912 503.903 Z M 402.912 603.167 L 402.662 603.167 L 402.662 603.417 L 402.912 603.417 L 402.912 603.167 Z M 503.255 603.167 L 503.255 603.417 L 503.505 603.417 L 503.505 603.167 L 503.255 603.167 Z M 503.255 503.903 L 503.505 503.903 L 503.505 503.653 L 503.255 503.653 L 503.255 503.903 Z M 503.255 503.486 L 503.255 503.736 L 503.505 503.736 L 503.505 503.486 L 503.255 503.486 Z M 402.912 503.486 L 402.662 503.486 L 402.662 503.736 L 402.912 503.736 L 402.912 503.486 Z M 402.912 403.097 L 402.912 402.847 L 402.662 402.847 L 402.662 403.097 L 402.912 403.097 Z M 503.255 403.097 L 503.505 403.097 L 503.505 402.847 L 503.255 402.847 L 503.255 403.097 Z M 503.671 503.903 L 503.671 503.653 L 503.421 503.653 L 503.421 503.903 L 503.671 503.903 Z M 503.671 603.167 L 503.421 603.167 L 503.421 603.417 L 503.671 603.417 L 503.671 603.167 Z M 604.014 603.167 L 604.014 603.417 L 604.264 603.417 L 604.264 603.167 L 604.014 603.167 Z M 604.014 503.903 L 604.264 503.903 L 604.264 503.653 L 604.014 503.653 L 604.014 503.903 Z M 604.014 503.486 L 604.014 503.736 L 604.264 503.736 L 604.264 503.486 L 604.014 503.486 Z M 503.671 503.486 L 503.421 503.486 L 503.421 503.736 L 503.671 503.736 L 503.671 503.486 Z M 503.671 403.097 L 503.671 402.847 L 503.421 402.847 L 503.421 403.097 L 503.671 403.097 Z M 604.014 403.097 L 604.264 403.097 L 604.264 402.847 L 604.014 402.847 L 604.014 403.097 Z M 604.431 503.903 L 604.431 503.653 L 604.181 503.653 L 604.181 503.903 L 604.431 503.903 Z M 604.431 603.167 L 604.181 603.167 L 604.181 603.417 L 604.431 603.417 L 604.431 603.167 Z M 704.773 603.167 L 704.773 603.417 L 705.023 603.417 L 705.023 603.167 L 704.773 603.167 Z M 704.773 503.903 L 705.023 503.903 L 705.023 503.653 L 704.773 503.653 L 704.773 503.903 Z M 704.773 503.486 L 704.773 503.736 L 705.023 503.736 L 705.023 503.486 L 704.773 503.486 Z M 604.431 503.486 L 604.181 503.486 L 604.181 503.736 L 604.431 503.736 L 604.431 503.486 Z M 604.431 403.097 L 604.431 402.847 L 604.181 402.847 L 604.181 403.097 L 604.431 403.097 Z M 704.773 403.097 L 705.023 403.097 L 705.023 402.847 L 704.773 402.847 L 704.773 403.097 Z M 705.19 503.903 L 705.19 503.653 L 704.94 503.653 L 704.94 503.903 L 705.19 503.903 Z M 705.19 603.167 L 704.94 603.167 L 704.94 603.417 L 705.19 603.417 L 705.19 603.167 Z M 805.533 603.167 L 805.533 603.417 L 805.783 603.417 L 805.783 603.167 L 805.533 603.167 Z M 805.533 503.903 L 805.783 503.903 L 805.783 503.653 L 805.533 503.653 L 805.533 503.903 Z M 805.533 503.486 L 805.533 503.736 L 805.783 503.736 L 805.783 503.486 L 805.533 503.486 Z M 705.19 503.486 L 704.94 503.486 L 704.94 503.736 L 705.19 503.736 L 705.19 503.486 Z M 705.19 403.097 L 705.19 402.847 L 704.94 402.847 L 704.94 403.097 L 705.19 403.097 Z M 805.533 403.097 L 805.783 403.097 L 805.783 402.847 L 805.533 402.847 L 805.533 403.097 Z M 805.949 503.903 L 805.949 503.653 L 805.699 503.653 L 805.699 503.903 L 805.949 503.903 Z M 805.949 603.167 L 805.699 603.167 L 805.699 603.417 L 805.949 603.417 L 805.949 603.167 Z M 905.167 603.167 L 905.167 603.417 L 905.417 603.417 L 905.417 603.167 L 905.167 603.167 Z M 905.167 503.903 L 905.417 503.903 L 905.417 503.653 L 905.167 503.653 L 905.167 503.903 Z M 905.167 503.486 L 905.167 503.736 L 905.417 503.736 L 905.417 503.486 L 905.167 503.486 Z M 805.949 503.486 L 805.699 503.486 L 805.699 503.736 L 805.949 503.736 L 805.949 503.486 Z M 805.949 403.097 L 805.949 402.847 L 805.699 402.847 L 805.699 403.097 L 805.949 403.097 Z M 905.167 403.097 L 905.417 403.097 L 905.417 402.847 L 905.167 402.847 L 905.167 403.097 Z M 1 402.681 L 0.75 402.681 L 0.75 402.931 L 1 402.931 L 1 402.681 Z M 1 302.292 L 1 302.042 L 0.75 302.042 L 0.75 302.292 L 1 302.292 Z M 100.218 402.681 L 100.218 402.931 L 100.468 402.931 L 100.468 402.681 L 100.218 402.681 Z M 100.218 302.292 L 100.468 302.292 L 100.468 302.042 L 100.218 302.042 L 100.218 302.292 Z M 200.977 402.681 L 200.977 402.931 L 201.227 402.931 L 201.227 402.681 L 200.977 402.681 Z M 100.635 402.681 L 100.385 402.681 L 100.385 402.931 L 100.635 402.931 L 100.635 402.681 Z M 200.977 302.292 L 201.227 302.292 L 201.227 302.042 L 200.977 302.042 L 200.977 302.292 Z M 100.635 302.292 L 100.635 302.042 L 100.385 302.042 L 100.385 302.292 L 100.635 302.292 Z M 301.737 402.681 L 301.737 402.931 L 301.987 402.931 L 301.987 402.681 L 301.737 402.681 Z M 201.394 402.681 L 201.144 402.681 L 201.144 402.931 L 201.394 402.931 L 201.394 402.681 Z M 301.737 302.292 L 301.987 302.292 L 301.987 302.042 L 301.737 302.042 L 301.737 302.292 Z M 201.394 302.292 L 201.394 302.042 L 201.144 302.042 L 201.144 302.292 L 201.394 302.292 Z M 402.496 402.681 L 402.496 402.931 L 402.746 402.931 L 402.746 402.681 L 402.496 402.681 Z M 302.153 402.681 L 301.903 402.681 L 301.903 402.931 L 302.153 402.931 L 302.153 402.681 Z M 402.496 302.292 L 402.746 302.292 L 402.746 302.042 L 402.496 302.042 L 402.496 302.292 Z M 302.153 302.292 L 302.153 302.042 L 301.903 302.042 L 301.903 302.292 L 302.153 302.292 Z M 503.255 402.681 L 503.255 402.931 L 503.505 402.931 L 503.505 402.681 L 503.255 402.681 Z M 402.912 402.681 L 402.662 402.681 L 402.662 402.931 L 402.912 402.931 L 402.912 402.681 Z M 503.255 302.292 L 503.505 302.292 L 503.505 302.042 L 503.255 302.042 L 503.255 302.292 Z M 402.912 302.292 L 402.912 302.042 L 402.662 302.042 L 402.662 302.292 L 402.912 302.292 Z M 604.014 402.681 L 604.014 402.931 L 604.264 402.931 L 604.264 402.681 L 604.014 402.681 Z M 503.671 402.681 L 503.421 402.681 L 503.421 402.931 L 503.671 402.931 L 503.671 402.681 Z M 604.014 302.292 L 604.264 302.292 L 604.264 302.042 L 604.014 302.042 L 604.014 302.292 Z M 503.671 302.292 L 503.671 302.042 L 503.421 302.042 L 503.421 302.292 L 503.671 302.292 Z M 704.773 402.681 L 704.773 402.931 L 705.023 402.931 L 705.023 402.681 L 704.773 402.681 Z M 604.431 402.681 L 604.181 402.681 L 604.181 402.931 L 604.431 402.931 L 604.431 402.681 Z M 704.773 302.292 L 705.023 302.292 L 705.023 302.042 L 704.773 302.042 L 704.773 302.292 Z M 604.431 302.292 L 604.431 302.042 L 604.181 302.042 L 604.181 302.292 L 604.431 302.292 Z M 805.533 402.681 L 805.533 402.931 L 805.783 402.931 L 805.783 402.681 L 805.533 402.681 Z M 705.19 402.681 L 704.94 402.681 L 704.94 402.931 L 705.19 402.931 L 705.19 402.681 Z M 805.533 302.292 L 805.783 302.292 L 805.783 302.042 L 805.533 302.042 L 805.533 302.292 Z M 705.19 302.292 L 705.19 302.042 L 704.94 302.042 L 704.94 302.292 L 705.19 302.292 Z M 905.167 402.681 L 905.167 402.931 L 905.417 402.931 L 905.417 402.681 L 905.167 402.681 Z M 805.949 402.681 L 805.699 402.681 L 805.699 402.931 L 805.949 402.931 L 805.949 402.681 Z M 905.167 302.292 L 905.417 302.292 L 905.417 302.042 L 905.167 302.042 L 905.167 302.292 Z M 805.949 302.292 L 805.949 302.042 L 805.699 302.042 L 805.699 302.292 L 805.949 302.292 Z M 200.977 301.875 L 200.977 302.125 L 201.227 302.125 L 201.227 301.875 L 200.977 301.875 Z M 100.635 301.875 L 100.385 301.875 L 100.385 302.125 L 100.635 302.125 L 100.635 301.875 Z M 200.977 201.486 L 201.227 201.486 L 201.227 201.236 L 200.977 201.236 L 200.977 201.486 Z M 100.635 201.486 L 100.635 201.236 L 100.385 201.236 L 100.385 201.486 L 100.635 201.486 Z M 402.496 301.875 L 402.496 302.125 L 402.746 302.125 L 402.746 301.875 L 402.496 301.875 Z M 302.153 301.875 L 301.903 301.875 L 301.903 302.125 L 302.153 302.125 L 302.153 301.875 Z M 402.496 201.486 L 402.746 201.486 L 402.746 201.236 L 402.496 201.236 L 402.496 201.486 Z M 302.153 201.486 L 302.153 201.236 L 301.903 201.236 L 301.903 201.486 L 302.153 201.486 Z M 604.014 301.875 L 604.014 302.125 L 604.264 302.125 L 604.264 301.875 L 604.014 301.875 Z M 503.671 301.875 L 503.421 301.875 L 503.421 302.125 L 503.671 302.125 L 503.671 301.875 Z M 604.014 201.486 L 604.264 201.486 L 604.264 201.236 L 604.014 201.236 L 604.014 201.486 Z M 503.671 201.486 L 503.671 201.236 L 503.421 201.236 L 503.421 201.486 L 503.671 201.486 Z M 805.533 301.875 L 805.533 302.125 L 805.783 302.125 L 805.783 301.875 L 805.533 301.875 Z M 705.19 301.875 L 704.94 301.875 L 704.94 302.125 L 705.19 302.125 L 705.19 301.875 Z M 805.533 201.486 L 805.783 201.486 L 805.783 201.236 L 805.533 201.236 L 805.533 201.486 Z M 705.19 201.486 L 705.19 201.236 L 704.94 201.236 L 704.94 201.486 L 705.19 201.486 Z M 905.167 301.875 L 905.167 302.125 L 905.417 302.125 L 905.417 301.875 L 905.167 301.875 Z M 805.949 301.875 L 805.699 301.875 L 805.699 302.125 L 805.949 302.125 L 805.949 301.875 Z M 905.167 201.486 L 905.417 201.486 L 905.417 201.236 L 905.167 201.236 L 905.167 201.486 Z M 805.949 201.486 L 805.949 201.236 L 805.699 201.236 L 805.699 201.486 L 805.949 201.486 Z M 704.773 301.875 L 704.773 302.125 L 705.023 302.125 L 705.023 301.875 L 704.773 301.875 Z M 604.431 301.875 L 604.181 301.875 L 604.181 302.125 L 604.431 302.125 L 604.431 301.875 Z M 704.773 201.486 L 705.023 201.486 L 705.023 201.236 L 704.773 201.236 L 704.773 201.486 Z M 604.431 201.486 L 604.431 201.236 L 604.181 201.236 L 604.181 201.486 L 604.431 201.486 Z M 503.255 301.875 L 503.255 302.125 L 503.505 302.125 L 503.505 301.875 L 503.255 301.875 Z M 402.912 301.875 L 402.662 301.875 L 402.662 302.125 L 402.912 302.125 L 402.912 301.875 Z M 503.255 201.486 L 503.505 201.486 L 503.505 201.236 L 503.255 201.236 L 503.255 201.486 Z M 402.912 201.486 L 402.912 201.236 L 402.662 201.236 L 402.662 201.486 L 402.912 201.486 Z M 301.737 301.875 L 301.737 302.125 L 301.987 302.125 L 301.987 301.875 L 301.737 301.875 Z M 201.394 301.875 L 201.144 301.875 L 201.144 302.125 L 201.394 302.125 L 201.394 301.875 Z M 301.737 201.486 L 301.987 201.486 L 301.987 201.236 L 301.737 201.236 L 301.737 201.486 Z M 201.394 201.486 L 201.394 201.236 L 201.144 201.236 L 201.144 201.486 L 201.394 201.486 Z M 100.218 301.875 L 100.218 302.125 L 100.468 302.125 L 100.468 301.875 L 100.218 301.875 Z M 100.218 201.486 L 100.468 201.486 L 100.468 201.236 L 100.218 201.236 L 100.218 201.486 Z M 1 301.875 L 0.75 301.875 L 0.75 302.125 L 1 302.125 L 1 301.875 Z M 1 201.486 L 1 201.236 L 0.75 201.236 L 0.75 201.486 L 1 201.486 Z M 1 201.07 L 0.75 201.07 L 0.75 201.32 L 1 201.32 L 1 201.07 Z M 100.218 201.07 L 100.218 201.32 L 100.468 201.32 L 100.468 201.07 L 100.218 201.07 Z M 1 100.681 L 1 100.431 L 0.75 100.431 L 0.75 100.681 L 1 100.681 Z M 100.218 100.681 L 100.468 100.681 L 100.468 100.431 L 100.218 100.431 L 100.218 100.681 Z M 200.977 201.07 L 200.977 201.32 L 201.227 201.32 L 201.227 201.07 L 200.977 201.07 Z M 100.635 201.07 L 100.385 201.07 L 100.385 201.32 L 100.635 201.32 L 100.635 201.07 Z M 200.977 100.681 L 201.227 100.681 L 201.227 100.431 L 200.977 100.431 L 200.977 100.681 Z M 100.635 100.681 L 100.635 100.431 L 100.385 100.431 L 100.385 100.681 L 100.635 100.681 Z M 301.737 201.07 L 301.737 201.32 L 301.987 201.32 L 301.987 201.07 L 301.737 201.07 Z M 201.394 201.07 L 201.144 201.07 L 201.144 201.32 L 201.394 201.32 L 201.394 201.07 Z M 301.737 100.681 L 301.987 100.681 L 301.987 100.431 L 301.737 100.431 L 301.737 100.681 Z M 201.394 100.681 L 201.394 100.431 L 201.144 100.431 L 201.144 100.681 L 201.394 100.681 Z M 402.496 201.07 L 402.496 201.32 L 402.746 201.32 L 402.746 201.07 L 402.496 201.07 Z M 302.153 201.07 L 301.903 201.07 L 301.903 201.32 L 302.153 201.32 L 302.153 201.07 Z M 402.496 100.681 L 402.746 100.681 L 402.746 100.431 L 402.496 100.431 L 402.496 100.681 Z M 302.153 100.681 L 302.153 100.431 L 301.903 100.431 L 301.903 100.681 L 302.153 100.681 Z M 503.255 201.07 L 503.255 201.32 L 503.505 201.32 L 503.505 201.07 L 503.255 201.07 Z M 402.912 201.07 L 402.662 201.07 L 402.662 201.32 L 402.912 201.32 L 402.912 201.07 Z M 503.255 100.681 L 503.505 100.681 L 503.505 100.431 L 503.255 100.431 L 503.255 100.681 Z M 402.912 100.681 L 402.912 100.431 L 402.662 100.431 L 402.662 100.681 L 402.912 100.681 Z M 604.014 201.07 L 604.014 201.32 L 604.264 201.32 L 604.264 201.07 L 604.014 201.07 Z M 503.671 201.07 L 503.421 201.07 L 503.421 201.32 L 503.671 201.32 L 503.671 201.07 Z M 604.014 100.681 L 604.264 100.681 L 604.264 100.431 L 604.014 100.431 L 604.014 100.681 Z M 503.671 100.681 L 503.671 100.431 L 503.421 100.431 L 503.421 100.681 L 503.671 100.681 Z M 704.773 201.07 L 704.773 201.32 L 705.023 201.32 L 705.023 201.07 L 704.773 201.07 Z M 604.431 201.07 L 604.181 201.07 L 604.181 201.32 L 604.431 201.32 L 604.431 201.07 Z M 704.773 100.681 L 705.023 100.681 L 705.023 100.431 L 704.773 100.431 L 704.773 100.681 Z M 604.431 100.681 L 604.431 100.431 L 604.181 100.431 L 604.181 100.681 L 604.431 100.681 Z M 805.533 201.07 L 805.533 201.32 L 805.783 201.32 L 805.783 201.07 L 805.533 201.07 Z M 705.19 201.07 L 704.94 201.07 L 704.94 201.32 L 705.19 201.32 L 705.19 201.07 Z M 805.533 100.681 L 805.783 100.681 L 805.783 100.431 L 805.533 100.431 L 805.533 100.681 Z M 705.19 100.681 L 705.19 100.431 L 704.94 100.431 L 704.94 100.681 L 705.19 100.681 Z M 905.167 201.07 L 905.167 201.32 L 905.417 201.32 L 905.417 201.07 L 905.167 201.07 Z M 805.949 201.07 L 805.699 201.07 L 805.699 201.32 L 805.949 201.32 L 805.949 201.07 Z M 905.167 100.681 L 905.417 100.681 L 905.417 100.431 L 905.167 100.431 L 905.167 100.681 Z M 805.949 100.681 L 805.949 100.431 L 805.699 100.431 L 805.699 100.681 L 805.949 100.681 Z M 100.635 100.264 L 100.385 100.264 L 100.385 100.514 L 100.635 100.514 L 100.635 100.264 Z M 200.977 100.264 L 200.977 100.514 L 201.227 100.514 L 201.227 100.264 L 200.977 100.264 Z M 100.635 1 L 100.635 0.75 L 100.385 0.75 L 100.385 1 L 100.635 1 Z M 200.977 1 L 201.227 1 L 201.227 0.75 L 200.977 0.75 L 200.977 1 Z M 201.394 100.264 L 201.144 100.264 L 201.144 100.514 L 201.394 100.514 L 201.394 100.264 Z M 301.737 100.264 L 301.737 100.514 L 301.987 100.514 L 301.987 100.264 L 301.737 100.264 Z M 201.394 1 L 201.394 0.75 L 201.144 0.75 L 201.144 1 L 201.394 1 Z M 301.737 1 L 301.987 1 L 301.987 0.75 L 301.737 0.75 L 301.737 1 Z M 302.153 100.264 L 301.903 100.264 L 301.903 100.514 L 302.153 100.514 L 302.153 100.264 Z M 402.496 100.264 L 402.496 100.514 L 402.746 100.514 L 402.746 100.264 L 402.496 100.264 Z M 302.153 1 L 302.153 0.75 L 301.903 0.75 L 301.903 1 L 302.153 1 Z M 402.496 1 L 402.746 1 L 402.746 0.75 L 402.496 0.75 L 402.496 1 Z M 402.912 100.264 L 402.662 100.264 L 402.662 100.514 L 402.912 100.514 L 402.912 100.264 Z M 503.255 100.264 L 503.255 100.514 L 503.505 100.514 L 503.505 100.264 L 503.255 100.264 Z M 402.912 1 L 402.912 0.75 L 402.662 0.75 L 402.662 1 L 402.912 1 Z M 503.255 1 L 503.505 1 L 503.505 0.75 L 503.255 0.75 L 503.255 1 Z M 503.671 100.264 L 503.421 100.264 L 503.421 100.514 L 503.671 100.514 L 503.671 100.264 Z M 604.014 100.264 L 604.014 100.514 L 604.264 100.514 L 604.264 100.264 L 604.014 100.264 Z M 503.671 1 L 503.671 0.75 L 503.421 0.75 L 503.421 1 L 503.671 1 Z M 604.014 1 L 604.264 1 L 604.264 0.75 L 604.014 0.75 L 604.014 1 Z M 604.431 100.264 L 604.181 100.264 L 604.181 100.514 L 604.431 100.514 L 604.431 100.264 Z M 704.773 100.264 L 704.773 100.514 L 705.023 100.514 L 705.023 100.264 L 704.773 100.264 Z M 604.431 1 L 604.431 0.75 L 604.181 0.75 L 604.181 1 L 604.431 1 Z M 704.773 1 L 705.023 1 L 705.023 0.75 L 704.773 0.75 L 704.773 1 Z M 705.19 100.264 L 704.94 100.264 L 704.94 100.514 L 705.19 100.514 L 705.19 100.264 Z M 805.533 100.264 L 805.533 100.514 L 805.783 100.514 L 805.783 100.264 L 805.533 100.264 Z M 705.19 1 L 705.19 0.75 L 704.94 0.75 L 704.94 1 L 705.19 1 Z M 805.533 1 L 805.783 1 L 805.783 0.75 L 805.533 0.75 L 805.533 1 Z M 805.949 100.264 L 805.699 100.264 L 805.699 100.514 L 805.949 100.514 L 805.949 100.264 Z M 905.167 100.264 L 905.167 100.514 L 905.417 100.514 L 905.417 100.264 L 905.167 100.264 Z M 805.949 1 L 805.949 0.75 L 805.699 0.75 L 805.699 1 L 805.949 1 Z M 905.167 1 L 905.417 1 L 905.417 0.75 L 905.167 0.75 L 905.167 1 Z M 1 100.264 L 0.75 100.264 L 0.75 100.514 L 1 100.514 L 1 100.264 Z M 100.218 100.264 L 100.218 100.514 L 100.468 100.514 L 100.468 100.264 L 100.218 100.264 Z M 1 1 L 1 0.75 L 0.75 0.75 L 0.75 1 L 1 1 Z M 100.218 1 L 100.468 1 L 100.468 0.75 L 100.218 0.75 L 100.218 1 Z M 906.167 0 L 905.917 0 L 905.917 604.167 L 906.167 604.167 L 906.417 604.167 L 906.417 0 L 906.167 0 Z M 0 0 L 0 0.25 L 906.167 0.25 L 906.167 0 L 906.167 -0.25 L 0 -0.25 L 0 0 Z M 0 604.167 L 0.25 604.167 L 0.25 0 L 0 0 L -0.25 0 L -0.25 604.167 L 0 604.167 Z M 906.167 604.167 L 906.167 603.917 L 0 603.917 L 0 604.167 L 0 604.417 L 906.167 604.417 L 906.167 604.167 Z M 1 603.167 L 1 603.417 L 100.218 603.417 L 100.218 603.167 L 100.218 602.917 L 1 602.917 L 1 603.167 Z M 1 503.903 L 0.75 503.903 L 0.75 603.167 L 1 603.167 L 1.25 603.167 L 1.25 503.903 L 1 503.903 Z M 1 503.903 L 1 504.153 L 100.218 504.153 L 100.218 503.903 L 100.218 503.653 L 1 503.653 L 1 503.903 Z M 100.218 603.167 L 100.468 603.167 L 100.468 503.903 L 100.218 503.903 L 99.968 503.903 L 99.968 603.167 L 100.218 603.167 Z M 100.218 503.486 L 100.218 503.236 L 1 503.236 L 1 503.486 L 1 503.736 L 100.218 503.736 L 100.218 503.486 Z M 1 403.097 L 0.75 403.097 L 0.75 503.486 L 1 503.486 L 1.25 503.486 L 1.25 403.097 L 1 403.097 Z M 100.218 403.097 L 100.218 402.847 L 1 402.847 L 1 403.097 L 1 403.347 L 100.218 403.347 L 100.218 403.097 Z M 100.218 503.486 L 100.468 503.486 L 100.468 403.097 L 100.218 403.097 L 99.968 403.097 L 99.968 503.486 L 100.218 503.486 Z M 100.635 503.903 L 100.385 503.903 L 100.385 603.167 L 100.635 603.167 L 100.885 603.167 L 100.885 503.903 L 100.635 503.903 Z M 100.635 603.167 L 100.635 603.417 L 200.977 603.417 L 200.977 603.167 L 200.977 602.917 L 100.635 602.917 L 100.635 603.167 Z M 200.977 603.167 L 201.227 603.167 L 201.227 503.903 L 200.977 503.903 L 200.727 503.903 L 200.727 603.167 L 200.977 603.167 Z M 100.635 503.903 L 100.635 504.153 L 200.977 504.153 L 200.977 503.903 L 200.977 503.653 L 100.635 503.653 L 100.635 503.903 Z M 200.977 503.486 L 200.977 503.236 L 100.635 503.236 L 100.635 503.486 L 100.635 503.736 L 200.977 503.736 L 200.977 503.486 Z M 100.635 403.097 L 100.385 403.097 L 100.385 503.486 L 100.635 503.486 L 100.885 503.486 L 100.885 403.097 L 100.635 403.097 Z M 200.977 403.097 L 200.977 402.847 L 100.635 402.847 L 100.635 403.097 L 100.635 403.347 L 200.977 403.347 L 200.977 403.097 Z M 200.977 503.486 L 201.227 503.486 L 201.227 403.097 L 200.977 403.097 L 200.727 403.097 L 200.727 503.486 L 200.977 503.486 Z M 201.394 503.903 L 201.144 503.903 L 201.144 603.167 L 201.394 603.167 L 201.644 603.167 L 201.644 503.903 L 201.394 503.903 Z M 201.394 603.167 L 201.394 603.417 L 301.737 603.417 L 301.737 603.167 L 301.737 602.917 L 201.394 602.917 L 201.394 603.167 Z M 301.737 603.167 L 301.987 603.167 L 301.987 503.903 L 301.737 503.903 L 301.487 503.903 L 301.487 603.167 L 301.737 603.167 Z M 201.394 503.903 L 201.394 504.153 L 301.737 504.153 L 301.737 503.903 L 301.737 503.653 L 201.394 503.653 L 201.394 503.903 Z M 301.737 503.486 L 301.737 503.236 L 201.394 503.236 L 201.394 503.486 L 201.394 503.736 L 301.737 503.736 L 301.737 503.486 Z M 201.394 403.097 L 201.144 403.097 L 201.144 503.486 L 201.394 503.486 L 201.644 503.486 L 201.644 403.097 L 201.394 403.097 Z M 301.737 403.097 L 301.737 402.847 L 201.394 402.847 L 201.394 403.097 L 201.394 403.347 L 301.737 403.347 L 301.737 403.097 Z M 301.737 503.486 L 301.987 503.486 L 301.987 403.097 L 301.737 403.097 L 301.487 403.097 L 301.487 503.486 L 301.737 503.486 Z M 302.153 503.903 L 301.903 503.903 L 301.903 603.167 L 302.153 603.167 L 302.403 603.167 L 302.403 503.903 L 302.153 503.903 Z M 302.153 603.167 L 302.153 603.417 L 402.496 603.417 L 402.496 603.167 L 402.496 602.917 L 302.153 602.917 L 302.153 603.167 Z M 402.496 603.167 L 402.746 603.167 L 402.746 503.903 L 402.496 503.903 L 402.246 503.903 L 402.246 603.167 L 402.496 603.167 Z M 302.153 503.903 L 302.153 504.153 L 402.496 504.153 L 402.496 503.903 L 402.496 503.653 L 302.153 503.653 L 302.153 503.903 Z M 402.496 503.486 L 402.496 503.236 L 302.153 503.236 L 302.153 503.486 L 302.153 503.736 L 402.496 503.736 L 402.496 503.486 Z M 302.153 403.097 L 301.903 403.097 L 301.903 503.486 L 302.153 503.486 L 302.403 503.486 L 302.403 403.097 L 302.153 403.097 Z M 402.496 403.097 L 402.496 402.847 L 302.153 402.847 L 302.153 403.097 L 302.153 403.347 L 402.496 403.347 L 402.496 403.097 Z M 402.496 503.486 L 402.746 503.486 L 402.746 403.097 L 402.496 403.097 L 402.246 403.097 L 402.246 503.486 L 402.496 503.486 Z M 402.912 503.903 L 402.662 503.903 L 402.662 603.167 L 402.912 603.167 L 403.162 603.167 L 403.162 503.903 L 402.912 503.903 Z M 402.912 603.167 L 402.912 603.417 L 503.255 603.417 L 503.255 603.167 L 503.255 602.917 L 402.912 602.917 L 402.912 603.167 Z M 503.255 603.167 L 503.505 603.167 L 503.505 503.903 L 503.255 503.903 L 503.005 503.903 L 503.005 603.167 L 503.255 603.167 Z M 402.912 503.903 L 402.912 504.153 L 503.255 504.153 L 503.255 503.903 L 503.255 503.653 L 402.912 503.653 L 402.912 503.903 Z M 503.255 503.486 L 503.255 503.236 L 402.912 503.236 L 402.912 503.486 L 402.912 503.736 L 503.255 503.736 L 503.255 503.486 Z M 402.912 403.097 L 402.662 403.097 L 402.662 503.486 L 402.912 503.486 L 403.162 503.486 L 403.162 403.097 L 402.912 403.097 Z M 503.255 403.097 L 503.255 402.847 L 402.912 402.847 L 402.912 403.097 L 402.912 403.347 L 503.255 403.347 L 503.255 403.097 Z M 503.255 503.486 L 503.505 503.486 L 503.505 403.097 L 503.255 403.097 L 503.005 403.097 L 503.005 503.486 L 503.255 503.486 Z M 503.671 503.903 L 503.421 503.903 L 503.421 603.167 L 503.671 603.167 L 503.921 603.167 L 503.921 503.903 L 503.671 503.903 Z M 503.671 603.167 L 503.671 603.417 L 604.014 603.417 L 604.014 603.167 L 604.014 602.917 L 503.671 602.917 L 503.671 603.167 Z M 604.014 603.167 L 604.264 603.167 L 604.264 503.903 L 604.014 503.903 L 603.764 503.903 L 603.764 603.167 L 604.014 603.167 Z M 503.671 503.903 L 503.671 504.153 L 604.014 504.153 L 604.014 503.903 L 604.014 503.653 L 503.671 503.653 L 503.671 503.903 Z M 604.014 503.486 L 604.014 503.236 L 503.671 503.236 L 503.671 503.486 L 503.671 503.736 L 604.014 503.736 L 604.014 503.486 Z M 503.671 403.097 L 503.421 403.097 L 503.421 503.486 L 503.671 503.486 L 503.921 503.486 L 503.921 403.097 L 503.671 403.097 Z M 604.014 403.097 L 604.014 402.847 L 503.671 402.847 L 503.671 403.097 L 503.671 403.347 L 604.014 403.347 L 604.014 403.097 Z M 604.014 503.486 L 604.264 503.486 L 604.264 403.097 L 604.014 403.097 L 603.764 403.097 L 603.764 503.486 L 604.014 503.486 Z M 604.431 503.903 L 604.181 503.903 L 604.181 603.167 L 604.431 603.167 L 604.681 603.167 L 604.681 503.903 L 604.431 503.903 Z M 604.431 603.167 L 604.431 603.417 L 704.773 603.417 L 704.773 603.167 L 704.773 602.917 L 604.431 602.917 L 604.431 603.167 Z M 704.773 603.167 L 705.023 603.167 L 705.023 503.903 L 704.773 503.903 L 704.523 503.903 L 704.523 603.167 L 704.773 603.167 Z M 604.431 503.903 L 604.431 504.153 L 704.773 504.153 L 704.773 503.903 L 704.773 503.653 L 604.431 503.653 L 604.431 503.903 Z M 704.773 503.486 L 704.773 503.236 L 604.431 503.236 L 604.431 503.486 L 604.431 503.736 L 704.773 503.736 L 704.773 503.486 Z M 604.431 403.097 L 604.181 403.097 L 604.181 503.486 L 604.431 503.486 L 604.681 503.486 L 604.681 403.097 L 604.431 403.097 Z M 704.773 403.097 L 704.773 402.847 L 604.431 402.847 L 604.431 403.097 L 604.431 403.347 L 704.773 403.347 L 704.773 403.097 Z M 704.773 503.486 L 705.023 503.486 L 705.023 403.097 L 704.773 403.097 L 704.523 403.097 L 704.523 503.486 L 704.773 503.486 Z M 705.19 503.903 L 704.94 503.903 L 704.94 603.167 L 705.19 603.167 L 705.44 603.167 L 705.44 503.903 L 705.19 503.903 Z M 705.19 603.167 L 705.19 603.417 L 805.533 603.417 L 805.533 603.167 L 805.533 602.917 L 705.19 602.917 L 705.19 603.167 Z M 805.533 603.167 L 805.783 603.167 L 805.783 503.903 L 805.533 503.903 L 805.283 503.903 L 805.283 603.167 L 805.533 603.167 Z M 705.19 503.903 L 705.19 504.153 L 805.533 504.153 L 805.533 503.903 L 805.533 503.653 L 705.19 503.653 L 705.19 503.903 Z M 805.533 503.486 L 805.533 503.236 L 705.19 503.236 L 705.19 503.486 L 705.19 503.736 L 805.533 503.736 L 805.533 503.486 Z M 705.19 403.097 L 704.94 403.097 L 704.94 503.486 L 705.19 503.486 L 705.44 503.486 L 705.44 403.097 L 705.19 403.097 Z M 805.533 403.097 L 805.533 402.847 L 705.19 402.847 L 705.19 403.097 L 705.19 403.347 L 805.533 403.347 L 805.533 403.097 Z M 805.533 503.486 L 805.783 503.486 L 805.783 403.097 L 805.533 403.097 L 805.283 403.097 L 805.283 503.486 L 805.533 503.486 Z M 805.949 503.903 L 805.699 503.903 L 805.699 603.167 L 805.949 603.167 L 806.199 603.167 L 806.199 503.903 L 805.949 503.903 Z M 805.949 603.167 L 805.949 603.417 L 905.167 603.417 L 905.167 603.167 L 905.167 602.917 L 805.949 602.917 L 805.949 603.167 Z M 905.167 603.167 L 905.417 603.167 L 905.417 503.903 L 905.167 503.903 L 904.917 503.903 L 904.917 603.167 L 905.167 603.167 Z M 805.949 503.903 L 805.949 504.153 L 905.167 504.153 L 905.167 503.903 L 905.167 503.653 L 805.949 503.653 L 805.949 503.903 Z M 905.167 503.486 L 905.167 503.236 L 805.949 503.236 L 805.949 503.486 L 805.949 503.736 L 905.167 503.736 L 905.167 503.486 Z M 805.949 403.097 L 805.699 403.097 L 805.699 503.486 L 805.949 503.486 L 806.199 503.486 L 806.199 403.097 L 805.949 403.097 Z M 905.167 403.097 L 905.167 402.847 L 805.949 402.847 L 805.949 403.097 L 805.949 403.347 L 905.167 403.347 L 905.167 403.097 Z M 905.167 503.486 L 905.417 503.486 L 905.417 403.097 L 905.167 403.097 L 904.917 403.097 L 904.917 503.486 L 905.167 503.486 Z M 1 402.681 L 1.25 402.681 L 1.25 302.292 L 1 302.292 L 0.75 302.292 L 0.75 402.681 L 1 402.681 Z M 100.218 402.681 L 100.218 402.431 L 1 402.431 L 1 402.681 L 1 402.931 L 100.218 402.931 L 100.218 402.681 Z M 100.218 302.292 L 99.968 302.292 L 99.968 402.681 L 100.218 402.681 L 100.468 402.681 L 100.468 302.292 L 100.218 302.292 Z M 1 302.292 L 1 302.542 L 100.218 302.542 L 100.218 302.292 L 100.218 302.042 L 1 302.042 L 1 302.292 Z M 200.977 402.681 L 200.977 402.431 L 100.635 402.431 L 100.635 402.681 L 100.635 402.931 L 200.977 402.931 L 200.977 402.681 Z M 200.977 302.292 L 200.727 302.292 L 200.727 402.681 L 200.977 402.681 L 201.227 402.681 L 201.227 302.292 L 200.977 302.292 Z M 100.635 302.292 L 100.635 302.542 L 200.977 302.542 L 200.977 302.292 L 200.977 302.042 L 100.635 302.042 L 100.635 302.292 Z M 100.635 402.681 L 100.885 402.681 L 100.885 302.292 L 100.635 302.292 L 100.385 302.292 L 100.385 402.681 L 100.635 402.681 Z M 301.737 402.681 L 301.737 402.431 L 201.394 402.431 L 201.394 402.681 L 201.394 402.931 L 301.737 402.931 L 301.737 402.681 Z M 301.737 302.292 L 301.487 302.292 L 301.487 402.681 L 301.737 402.681 L 301.987 402.681 L 301.987 302.292 L 301.737 302.292 Z M 201.394 302.292 L 201.394 302.542 L 301.737 302.542 L 301.737 302.292 L 301.737 302.042 L 201.394 302.042 L 201.394 302.292 Z M 201.394 402.681 L 201.644 402.681 L 201.644 302.292 L 201.394 302.292 L 201.144 302.292 L 201.144 402.681 L 201.394 402.681 Z M 402.496 402.681 L 402.496 402.431 L 302.153 402.431 L 302.153 402.681 L 302.153 402.931 L 402.496 402.931 L 402.496 402.681 Z M 402.496 302.292 L 402.246 302.292 L 402.246 402.681 L 402.496 402.681 L 402.746 402.681 L 402.746 302.292 L 402.496 302.292 Z M 302.153 302.292 L 302.153 302.542 L 402.496 302.542 L 402.496 302.292 L 402.496 302.042 L 302.153 302.042 L 302.153 302.292 Z M 302.153 402.681 L 302.403 402.681 L 302.403 302.292 L 302.153 302.292 L 301.903 302.292 L 301.903 402.681 L 302.153 402.681 Z M 503.255 402.681 L 503.255 402.431 L 402.912 402.431 L 402.912 402.681 L 402.912 402.931 L 503.255 402.931 L 503.255 402.681 Z M 503.255 302.292 L 503.005 302.292 L 503.005 402.681 L 503.255 402.681 L 503.505 402.681 L 503.505 302.292 L 503.255 302.292 Z M 402.912 302.292 L 402.912 302.542 L 503.255 302.542 L 503.255 302.292 L 503.255 302.042 L 402.912 302.042 L 402.912 302.292 Z M 402.912 402.681 L 403.162 402.681 L 403.162 302.292 L 402.912 302.292 L 402.662 302.292 L 402.662 402.681 L 402.912 402.681 Z M 604.014 402.681 L 604.014 402.431 L 503.671 402.431 L 503.671 402.681 L 503.671 402.931 L 604.014 402.931 L 604.014 402.681 Z M 604.014 302.292 L 603.764 302.292 L 603.764 402.681 L 604.014 402.681 L 604.264 402.681 L 604.264 302.292 L 604.014 302.292 Z M 503.671 302.292 L 503.671 302.542 L 604.014 302.542 L 604.014 302.292 L 604.014 302.042 L 503.671 302.042 L 503.671 302.292 Z M 503.671 402.681 L 503.921 402.681 L 503.921 302.292 L 503.671 302.292 L 503.421 302.292 L 503.421 402.681 L 503.671 402.681 Z M 704.773 402.681 L 704.773 402.431 L 604.431 402.431 L 604.431 402.681 L 604.431 402.931 L 704.773 402.931 L 704.773 402.681 Z M 704.773 302.292 L 704.523 302.292 L 704.523 402.681 L 704.773 402.681 L 705.023 402.681 L 705.023 302.292 L 704.773 302.292 Z M 604.431 302.292 L 604.431 302.542 L 704.773 302.542 L 704.773 302.292 L 704.773 302.042 L 604.431 302.042 L 604.431 302.292 Z M 604.431 402.681 L 604.681 402.681 L 604.681 302.292 L 604.431 302.292 L 604.181 302.292 L 604.181 402.681 L 604.431 402.681 Z M 805.533 402.681 L 805.533 402.431 L 705.19 402.431 L 705.19 402.681 L 705.19 402.931 L 805.533 402.931 L 805.533 402.681 Z M 805.533 302.292 L 805.283 302.292 L 805.283 402.681 L 805.533 402.681 L 805.783 402.681 L 805.783 302.292 L 805.533 302.292 Z M 705.19 302.292 L 705.19 302.542 L 805.533 302.542 L 805.533 302.292 L 805.533 302.042 L 705.19 302.042 L 705.19 302.292 Z M 705.19 402.681 L 705.44 402.681 L 705.44 302.292 L 705.19 302.292 L 704.94 302.292 L 704.94 402.681 L 705.19 402.681 Z M 905.167 402.681 L 905.167 402.431 L 805.949 402.431 L 805.949 402.681 L 805.949 402.931 L 905.167 402.931 L 905.167 402.681 Z M 905.167 302.292 L 904.917 302.292 L 904.917 402.681 L 905.167 402.681 L 905.417 402.681 L 905.417 302.292 L 905.167 302.292 Z M 805.949 302.292 L 805.949 302.542 L 905.167 302.542 L 905.167 302.292 L 905.167 302.042 L 805.949 302.042 L 805.949 302.292 Z M 805.949 402.681 L 806.199 402.681 L 806.199 302.292 L 805.949 302.292 L 805.699 302.292 L 805.699 402.681 L 805.949 402.681 Z M 200.977 301.875 L 200.977 301.625 L 100.635 301.625 L 100.635 301.875 L 100.635 302.125 L 200.977 302.125 L 200.977 301.875 Z M 200.977 201.486 L 200.727 201.486 L 200.727 301.875 L 200.977 301.875 L 201.227 301.875 L 201.227 201.486 L 200.977 201.486 Z M 100.635 201.486 L 100.635 201.736 L 200.977 201.736 L 200.977 201.486 L 200.977 201.236 L 100.635 201.236 L 100.635 201.486 Z M 100.635 301.875 L 100.885 301.875 L 100.885 201.486 L 100.635 201.486 L 100.385 201.486 L 100.385 301.875 L 100.635 301.875 Z M 402.496 301.875 L 402.496 301.625 L 302.153 301.625 L 302.153 301.875 L 302.153 302.125 L 402.496 302.125 L 402.496 301.875 Z M 402.496 201.486 L 402.246 201.486 L 402.246 301.875 L 402.496 301.875 L 402.746 301.875 L 402.746 201.486 L 402.496 201.486 Z M 302.153 201.486 L 302.153 201.736 L 402.496 201.736 L 402.496 201.486 L 402.496 201.236 L 302.153 201.236 L 302.153 201.486 Z M 302.153 301.875 L 302.403 301.875 L 302.403 201.486 L 302.153 201.486 L 301.903 201.486 L 301.903 301.875 L 302.153 301.875 Z M 604.014 301.875 L 604.014 301.625 L 503.671 301.625 L 503.671 301.875 L 503.671 302.125 L 604.014 302.125 L 604.014 301.875 Z M 604.014 201.486 L 603.764 201.486 L 603.764 301.875 L 604.014 301.875 L 604.264 301.875 L 604.264 201.486 L 604.014 201.486 Z M 503.671 201.486 L 503.671 201.736 L 604.014 201.736 L 604.014 201.486 L 604.014 201.236 L 503.671 201.236 L 503.671 201.486 Z M 503.671 301.875 L 503.921 301.875 L 503.921 201.486 L 503.671 201.486 L 503.421 201.486 L 503.421 301.875 L 503.671 301.875 Z M 805.533 301.875 L 805.533 301.625 L 705.19 301.625 L 705.19 301.875 L 705.19 302.125 L 805.533 302.125 L 805.533 301.875 Z M 805.533 201.486 L 805.283 201.486 L 805.283 301.875 L 805.533 301.875 L 805.783 301.875 L 805.783 201.486 L 805.533 201.486 Z M 705.19 201.486 L 705.19 201.736 L 805.533 201.736 L 805.533 201.486 L 805.533 201.236 L 705.19 201.236 L 705.19 201.486 Z M 705.19 301.875 L 705.44 301.875 L 705.44 201.486 L 705.19 201.486 L 704.94 201.486 L 704.94 301.875 L 705.19 301.875 Z M 905.167 301.875 L 905.167 301.625 L 805.949 301.625 L 805.949 301.875 L 805.949 302.125 L 905.167 302.125 L 905.167 301.875 Z M 905.167 201.486 L 904.917 201.486 L 904.917 301.875 L 905.167 301.875 L 905.417 301.875 L 905.417 201.486 L 905.167 201.486 Z M 805.949 201.486 L 805.949 201.736 L 905.167 201.736 L 905.167 201.486 L 905.167 201.236 L 805.949 201.236 L 805.949 201.486 Z M 805.949 301.875 L 806.199 301.875 L 806.199 201.486 L 805.949 201.486 L 805.699 201.486 L 805.699 301.875 L 805.949 301.875 Z M 704.773 301.875 L 704.773 301.625 L 604.431 301.625 L 604.431 301.875 L 604.431 302.125 L 704.773 302.125 L 704.773 301.875 Z M 704.773 201.486 L 704.523 201.486 L 704.523 301.875 L 704.773 301.875 L 705.023 301.875 L 705.023 201.486 L 704.773 201.486 Z M 604.431 201.486 L 604.431 201.736 L 704.773 201.736 L 704.773 201.486 L 704.773 201.236 L 604.431 201.236 L 604.431 201.486 Z M 604.431 301.875 L 604.681 301.875 L 604.681 201.486 L 604.431 201.486 L 604.181 201.486 L 604.181 301.875 L 604.431 301.875 Z M 503.255 301.875 L 503.255 301.625 L 402.912 301.625 L 402.912 301.875 L 402.912 302.125 L 503.255 302.125 L 503.255 301.875 Z M 503.255 201.486 L 503.005 201.486 L 503.005 301.875 L 503.255 301.875 L 503.505 301.875 L 503.505 201.486 L 503.255 201.486 Z M 402.912 201.486 L 402.912 201.736 L 503.255 201.736 L 503.255 201.486 L 503.255 201.236 L 402.912 201.236 L 402.912 201.486 Z M 402.912 301.875 L 403.162 301.875 L 403.162 201.486 L 402.912 201.486 L 402.662 201.486 L 402.662 301.875 L 402.912 301.875 Z M 301.737 301.875 L 301.737 301.625 L 201.394 301.625 L 201.394 301.875 L 201.394 302.125 L 301.737 302.125 L 301.737 301.875 Z M 301.737 201.486 L 301.487 201.486 L 301.487 301.875 L 301.737 301.875 L 301.987 301.875 L 301.987 201.486 L 301.737 201.486 Z M 201.394 201.486 L 201.394 201.736 L 301.737 201.736 L 301.737 201.486 L 301.737 201.236 L 201.394 201.236 L 201.394 201.486 Z M 201.394 301.875 L 201.644 301.875 L 201.644 201.486 L 201.394 201.486 L 201.144 201.486 L 201.144 301.875 L 201.394 301.875 Z M 100.218 301.875 L 100.468 301.875 L 100.468 201.486 L 100.218 201.486 L 99.968 201.486 L 99.968 301.875 L 100.218 301.875 Z M 1 301.875 L 1 302.125 L 100.218 302.125 L 100.218 301.875 L 100.218 301.625 L 1 301.625 L 1 301.875 Z M 1 201.486 L 0.75 201.486 L 0.75 301.875 L 1 301.875 L 1.25 301.875 L 1.25 201.486 L 1 201.486 Z M 100.218 201.486 L 100.218 201.236 L 1 201.236 L 1 201.486 L 1 201.736 L 100.218 201.736 L 100.218 201.486 Z M 1 201.07 L 1 201.32 L 100.218 201.32 L 100.218 201.07 L 100.218 200.82 L 1 200.82 L 1 201.07 Z M 1 100.681 L 0.75 100.681 L 0.75 201.07 L 1 201.07 L 1.25 201.07 L 1.25 100.681 L 1 100.681 Z M 100.218 100.681 L 100.218 100.431 L 1 100.431 L 1 100.681 L 1 100.931 L 100.218 100.931 L 100.218 100.681 Z M 100.218 201.07 L 100.468 201.07 L 100.468 100.681 L 100.218 100.681 L 99.968 100.681 L 99.968 201.07 L 100.218 201.07 Z M 200.977 201.07 L 200.977 200.82 L 100.635 200.82 L 100.635 201.07 L 100.635 201.32 L 200.977 201.32 L 200.977 201.07 Z M 200.977 100.681 L 200.727 100.681 L 200.727 201.07 L 200.977 201.07 L 201.227 201.07 L 201.227 100.681 L 200.977 100.681 Z M 100.635 100.681 L 100.635 100.931 L 200.977 100.931 L 200.977 100.681 L 200.977 100.431 L 100.635 100.431 L 100.635 100.681 Z M 100.635 201.07 L 100.885 201.07 L 100.885 100.681 L 100.635 100.681 L 100.385 100.681 L 100.385 201.07 L 100.635 201.07 Z M 301.737 201.07 L 301.737 200.82 L 201.394 200.82 L 201.394 201.07 L 201.394 201.32 L 301.737 201.32 L 301.737 201.07 Z M 301.737 100.681 L 301.487 100.681 L 301.487 201.07 L 301.737 201.07 L 301.987 201.07 L 301.987 100.681 L 301.737 100.681 Z M 201.394 100.681 L 201.394 100.931 L 301.737 100.931 L 301.737 100.681 L 301.737 100.431 L 201.394 100.431 L 201.394 100.681 Z M 201.394 201.07 L 201.644 201.07 L 201.644 100.681 L 201.394 100.681 L 201.144 100.681 L 201.144 201.07 L 201.394 201.07 Z M 402.496 201.07 L 402.496 200.82 L 302.153 200.82 L 302.153 201.07 L 302.153 201.32 L 402.496 201.32 L 402.496 201.07 Z M 402.496 100.681 L 402.246 100.681 L 402.246 201.07 L 402.496 201.07 L 402.746 201.07 L 402.746 100.681 L 402.496 100.681 Z M 302.153 100.681 L 302.153 100.931 L 402.496 100.931 L 402.496 100.681 L 402.496 100.431 L 302.153 100.431 L 302.153 100.681 Z M 302.153 201.07 L 302.403 201.07 L 302.403 100.681 L 302.153 100.681 L 301.903 100.681 L 301.903 201.07 L 302.153 201.07 Z M 503.255 201.07 L 503.255 200.82 L 402.912 200.82 L 402.912 201.07 L 402.912 201.32 L 503.255 201.32 L 503.255 201.07 Z M 503.255 100.681 L 503.005 100.681 L 503.005 201.07 L 503.255 201.07 L 503.505 201.07 L 503.505 100.681 L 503.255 100.681 Z M 402.912 100.681 L 402.912 100.931 L 503.255 100.931 L 503.255 100.681 L 503.255 100.431 L 402.912 100.431 L 402.912 100.681 Z M 402.912 201.07 L 403.162 201.07 L 403.162 100.681 L 402.912 100.681 L 402.662 100.681 L 402.662 201.07 L 402.912 201.07 Z M 604.014 201.07 L 604.014 200.82 L 503.671 200.82 L 503.671 201.07 L 503.671 201.32 L 604.014 201.32 L 604.014 201.07 Z M 604.014 100.681 L 603.764 100.681 L 603.764 201.07 L 604.014 201.07 L 604.264 201.07 L 604.264 100.681 L 604.014 100.681 Z M 503.671 100.681 L 503.671 100.931 L 604.014 100.931 L 604.014 100.681 L 604.014 100.431 L 503.671 100.431 L 503.671 100.681 Z M 503.671 201.07 L 503.921 201.07 L 503.921 100.681 L 503.671 100.681 L 503.421 100.681 L 503.421 201.07 L 503.671 201.07 Z M 704.773 201.07 L 704.773 200.82 L 604.431 200.82 L 604.431 201.07 L 604.431 201.32 L 704.773 201.32 L 704.773 201.07 Z M 704.773 100.681 L 704.523 100.681 L 704.523 201.07 L 704.773 201.07 L 705.023 201.07 L 705.023 100.681 L 704.773 100.681 Z M 604.431 100.681 L 604.431 100.931 L 704.773 100.931 L 704.773 100.681 L 704.773 100.431 L 604.431 100.431 L 604.431 100.681 Z M 604.431 201.07 L 604.681 201.07 L 604.681 100.681 L 604.431 100.681 L 604.181 100.681 L 604.181 201.07 L 604.431 201.07 Z M 805.533 201.07 L 805.533 200.82 L 705.19 200.82 L 705.19 201.07 L 705.19 201.32 L 805.533 201.32 L 805.533 201.07 Z M 805.533 100.681 L 805.283 100.681 L 805.283 201.07 L 805.533 201.07 L 805.783 201.07 L 805.783 100.681 L 805.533 100.681 Z M 705.19 100.681 L 705.19 100.931 L 805.533 100.931 L 805.533 100.681 L 805.533 100.431 L 705.19 100.431 L 705.19 100.681 Z M 705.19 201.07 L 705.44 201.07 L 705.44 100.681 L 705.19 100.681 L 704.94 100.681 L 704.94 201.07 L 705.19 201.07 Z M 905.167 201.07 L 905.167 200.82 L 805.949 200.82 L 805.949 201.07 L 805.949 201.32 L 905.167 201.32 L 905.167 201.07 Z M 905.167 100.681 L 904.917 100.681 L 904.917 201.07 L 905.167 201.07 L 905.417 201.07 L 905.417 100.681 L 905.167 100.681 Z M 805.949 100.681 L 805.949 100.931 L 905.167 100.931 L 905.167 100.681 L 905.167 100.431 L 805.949 100.431 L 805.949 100.681 Z M 805.949 201.07 L 806.199 201.07 L 806.199 100.681 L 805.949 100.681 L 805.699 100.681 L 805.699 201.07 L 805.949 201.07 Z M 100.635 100.264 L 100.635 100.514 L 200.977 100.514 L 200.977 100.264 L 200.977 100.014 L 100.635 100.014 L 100.635 100.264 Z M 100.635 1 L 100.385 1 L 100.385 100.264 L 100.635 100.264 L 100.885 100.264 L 100.885 1 L 100.635 1 Z M 200.977 1 L 200.977 0.75 L 100.635 0.75 L 100.635 1 L 100.635 1.25 L 200.977 1.25 L 200.977 1 Z M 200.977 100.264 L 201.227 100.264 L 201.227 1 L 200.977 1 L 200.727 1 L 200.727 100.264 L 200.977 100.264 Z M 201.394 100.264 L 201.394 100.514 L 301.737 100.514 L 301.737 100.264 L 301.737 100.014 L 201.394 100.014 L 201.394 100.264 Z M 201.394 1 L 201.144 1 L 201.144 100.264 L 201.394 100.264 L 201.644 100.264 L 201.644 1 L 201.394 1 Z M 301.737 1 L 301.737 0.75 L 201.394 0.75 L 201.394 1 L 201.394 1.25 L 301.737 1.25 L 301.737 1 Z M 301.737 100.264 L 301.987 100.264 L 301.987 1 L 301.737 1 L 301.487 1 L 301.487 100.264 L 301.737 100.264 Z M 302.153 100.264 L 302.153 100.514 L 402.496 100.514 L 402.496 100.264 L 402.496 100.014 L 302.153 100.014 L 302.153 100.264 Z M 302.153 1 L 301.903 1 L 301.903 100.264 L 302.153 100.264 L 302.403 100.264 L 302.403 1 L 302.153 1 Z M 402.496 1 L 402.496 0.75 L 302.153 0.75 L 302.153 1 L 302.153 1.25 L 402.496 1.25 L 402.496 1 Z M 402.496 100.264 L 402.746 100.264 L 402.746 1 L 402.496 1 L 402.246 1 L 402.246 100.264 L 402.496 100.264 Z M 402.912 100.264 L 402.912 100.514 L 503.255 100.514 L 503.255 100.264 L 503.255 100.014 L 402.912 100.014 L 402.912 100.264 Z M 402.912 1 L 402.662 1 L 402.662 100.264 L 402.912 100.264 L 403.162 100.264 L 403.162 1 L 402.912 1 Z M 503.255 1 L 503.255 0.75 L 402.912 0.75 L 402.912 1 L 402.912 1.25 L 503.255 1.25 L 503.255 1 Z M 503.255 100.264 L 503.505 100.264 L 503.505 1 L 503.255 1 L 503.005 1 L 503.005 100.264 L 503.255 100.264 Z M 503.671 100.264 L 503.671 100.514 L 604.014 100.514 L 604.014 100.264 L 604.014 100.014 L 503.671 100.014 L 503.671 100.264 Z M 503.671 1 L 503.421 1 L 503.421 100.264 L 503.671 100.264 L 503.921 100.264 L 503.921 1 L 503.671 1 Z M 604.014 1 L 604.014 0.75 L 503.671 0.75 L 503.671 1 L 503.671 1.25 L 604.014 1.25 L 604.014 1 Z M 604.014 100.264 L 604.264 100.264 L 604.264 1 L 604.014 1 L 603.764 1 L 603.764 100.264 L 604.014 100.264 Z M 604.431 100.264 L 604.431 100.514 L 704.773 100.514 L 704.773 100.264 L 704.773 100.014 L 604.431 100.014 L 604.431 100.264 Z M 604.431 1 L 604.181 1 L 604.181 100.264 L 604.431 100.264 L 604.681 100.264 L 604.681 1 L 604.431 1 Z M 704.773 1 L 704.773 0.75 L 604.431 0.75 L 604.431 1 L 604.431 1.25 L 704.773 1.25 L 704.773 1 Z M 704.773 100.264 L 705.023 100.264 L 705.023 1 L 704.773 1 L 704.523 1 L 704.523 100.264 L 704.773 100.264 Z M 705.19 100.264 L 705.19 100.514 L 805.533 100.514 L 805.533 100.264 L 805.533 100.014 L 705.19 100.014 L 705.19 100.264 Z M 705.19 1 L 704.94 1 L 704.94 100.264 L 705.19 100.264 L 705.44 100.264 L 705.44 1 L 705.19 1 Z M 805.533 1 L 805.533 0.75 L 705.19 0.75 L 705.19 1 L 705.19 1.25 L 805.533 1.25 L 805.533 1 Z M 805.533 100.264 L 805.783 100.264 L 805.783 1 L 805.533 1 L 805.283 1 L 805.283 100.264 L 805.533 100.264 Z M 805.949 100.264 L 805.949 100.514 L 905.167 100.514 L 905.167 100.264 L 905.167 100.014 L 805.949 100.014 L 805.949 100.264 Z M 805.949 1 L 805.699 1 L 805.699 100.264 L 805.949 100.264 L 806.199 100.264 L 806.199 1 L 805.949 1 Z M 905.167 1 L 905.167 0.75 L 805.949 0.75 L 805.949 1 L 805.949 1.25 L 905.167 1.25 L 905.167 1 Z M 905.167 100.264 L 905.417 100.264 L 905.417 1 L 905.167 1 L 904.917 1 L 904.917 100.264 L 905.167 100.264 Z M 1 100.264 L 1 100.514 L 100.218 100.514 L 100.218 100.264 L 100.218 100.014 L 1 100.014 L 1 100.264 Z M 1 1 L 0.75 1 L 0.75 100.264 L 1 100.264 L 1.25 100.264 L 1.25 1 L 1 1 Z M 100.218 1 L 100.218 0.75 L 1 0.75 L 1 1 L 1 1.25 L 100.218 1.25 L 100.218 1 Z M 100.218 100.264 L 100.468 100.264 L 100.468 1 L 100.218 1 L 99.968 1 L 99.968 100.264 L 100.218 100.264 Z" fill="currentColor" fill-rule="nonzero"/>
</svg>
